<svg width="233" height="60" viewBox="0 0 233 60" fill="none" xmlns="http://www.w3.org/2000/svg">
<path d="M138.042 22.6518H135.938V42.3501H138.042V22.6518Z" fill="#231815"/>
<path d="M39.343 42.3826H24.5145V16.1454H26.655V40.4776H39.343V42.3826Z" fill="#231815"/>
<path d="M94.4152 43.8545L80.2247 26.4879V42.3045H78.1927V21.1408L92.2748 38.5074V22.4923H94.4152V43.8545Z" fill="#231815"/>
<path d="M115.392 42.4836C115.382 42.4836 115.376 42.4836 115.369 42.4836H108.201V26.8982H110.342V40.5785H115.382C115.461 40.5785 118.719 40.5558 120.942 38.3642C122.372 36.9541 123.099 34.9221 123.099 32.3267V32.2551C123.099 29.5587 122.356 27.4746 120.886 26.0678C118.66 23.9316 115.445 24.0065 115.412 24.0065H108.159V22.1015H115.379C115.504 22.095 119.38 21.9875 122.208 24.6838C124.075 26.4651 125.022 29.0117 125.022 32.2551V32.3267C125.022 35.4562 124.098 37.9473 122.28 39.7286C119.538 42.4184 115.754 42.4836 115.392 42.4836Z" fill="#231815"/>
<path d="M57.4362 21.3818L57.2784 21.714H57.5941L57.4362 21.3818Z" fill="#231815"/>
<path d="M57.2784 21.714L47.4772 42.3501H49.6012L57.4362 25.8529L65.2713 42.3501H67.3953L57.5941 21.714H57.2784Z" fill="#231815"/>
<path d="M185.132 29.8941H183.895V42.0439H185.132V29.8941Z" fill="#231815"/>
<path d="M198.586 42.0439H197.382V37.3547C197.382 36.1563 197.086 35.2836 196.501 34.7593C195.88 34.2024 195.031 34.0885 194.426 34.0885C192.549 34.1178 191.471 35.1663 191.471 36.9704V42.0439H190.267V33.1278H191.471V33.9549C192.276 33.2255 193.463 32.8998 194.436 32.9292C195.574 32.9292 196.524 33.232 197.251 33.8344C198.138 34.5769 198.586 35.7623 198.586 37.3579V42.0439Z" fill="#231815"/>
<path d="M207.183 42.4608C204.494 42.4608 202.465 40.4646 202.459 37.8171C202.459 37.8138 202.459 37.8106 202.459 37.8106C202.459 37.8073 202.459 37.8041 202.459 37.8041C202.465 35.1468 204.494 33.1473 207.177 33.1473C209.252 33.1473 211.004 34.3652 211.642 36.254L211.813 36.7555H210.524L210.435 36.5015C209.814 34.7463 208.101 34.2936 207.197 34.3099C206.161 34.3229 205.474 34.5932 204.665 35.3064C204.057 35.8534 203.659 36.8369 203.659 37.8073C203.659 39.8003 205.171 41.3047 207.174 41.3047C208.923 41.2917 210.08 40.2008 210.412 39.1978L210.498 38.9373H211.796L211.622 39.442C210.994 41.2657 209.291 42.425 207.183 42.4608Z" fill="#231815"/>
<path d="M215.505 40.4483H213.947V41.9918H215.505V40.4483Z" fill="#231815"/>
<path d="M161.12 16.1454H159.016V26.5595H161.12V16.1454Z" fill="#231815"/>
<path d="M146.906 28.1813V30.083H159.016V42.3761H161.12V30.083H173.049V28.1813H146.906Z" fill="#231815"/>
</svg>
